# xmcd
#
# Track frame offsets: 
#        150
#        17484
#        40468
#        50849
#        77404
#        89279
#        112302
#        147943
#        164980
#        180802
#        203039
#        237447
#        271697
#
# Disc length: 3887 seconds
#
# Revision: 2
# Processed by: cddbd v1.5.2PL0 Copyright (c) Steve Scherf et al.
# Submitted via: ExactAudioCopy v0.99pb5
#
DISCID=b00f2d0d
DTITLE=The Early Years Vol 2 - The Early Years Vol.2
DYEAR=2006
DGENRE=Blues
TTITLE0=Early in the morning
TTITLE1=The feeling's gone
TTITLE2=Give me mine now
TTITLE3=Untitled
TTITLE4=Shoulda kept on running
TTITLE5=Lookin for trouble
TTITLE6=Bloody tears on my pillow
TTITLE7=Ice-cream man
TTITLE8=So glad I'm living
TTITLE9=Horn of plenty
TTITLE10=I had my fun
TTITLE11=Deal the cards
TTITLE12=Boogie Woogie Woman
EXTD=
EXTT0=
EXTT1=
EXTT2=
EXTT3=
EXTT4=
EXTT5=
EXTT6=
EXTT7=
EXTT8=
EXTT9=
EXTT10=
EXTT11=
EXTT12=
PLAYORDER=
